<svg xmlns="http://www.w3.org/2000/svg" version="1.1" xmlns:xlink="http://www.w3.org/1999/xlink" width="110px" height="110px"><svg version="1.1" id="SvgjsSvg1001" xmlns="http://www.w3.org/2000/svg" xmlns:xlink="http://www.w3.org/1999/xlink" x="0px" y="0px" width="110px" height="110px" viewBox="0 0 110 110" enable-background="new 0 0 110 110" xml:space="preserve">
<path fill="#0092FF" d="M99.616,75.534c0,3.188-1.705,6.134-4.479,7.743l-35.646,20.526c-2.771,1.595-6.181,1.595-8.953,0
	L14.86,83.277c-2.771-1.595-4.476-4.541-4.476-7.727V34.48c0-3.189,1.705-6.133,4.476-7.744L50.523,6.195
	c2.771-1.594,6.181-1.594,8.954,0l35.66,20.526c2.773,1.593,4.479,4.54,4.479,7.727V75.534z M94.835,73.331V36.667
	c0-2.854-1.523-5.482-4.006-6.909l-31.84-18.31c-2.466-1.428-5.528-1.428-7.994,0l-31.84,18.327
	c-2.468,1.426-4.006,4.054-4.006,6.907v36.666c0,2.854,1.524,5.482,4.006,6.909l31.84,18.326c2.482,1.427,5.528,1.427,7.994,0
	l31.84-18.341C93.312,78.813,94.835,76.188,94.835,73.331"></path>
<path fill="#0092FF" d="M75.912,68.725c0,5.103-4.15,9.241-9.27,9.241H39.81c-4.036,0-7.298-3.251-7.298-7.277
	c0-4.024,3.262-7.275,7.298-7.275h0.098c0.563-3.447,3.566-6.071,7.2-6.071c0.387,0,0.775,0.032,1.146,0.096
	c1.744-3.654,5.475-6.165,9.801-6.165c5.167,0,9.494,3.607,10.577,8.438C72.795,60.611,75.912,64.312,75.912,68.725"></path>
<path fill="#0092FF" d="M61.444,49.486c3.778,0.773,7.733-2.978,8.832-8.355c1.099-5.378-1.082-10.367-4.86-11.14
	c-3.778-0.774-7.733,2.977-8.832,8.354C55.485,43.739,57.65,48.729,61.444,49.486"></path>
<path fill="#0092FF" d="M48.705,49.486c3.777-0.772,5.959-5.747,4.86-11.141c-1.097-5.377-5.052-9.129-8.832-8.354
	c-3.778,0.773-5.957,5.746-4.86,11.14C40.972,46.508,44.927,50.26,48.705,49.486"></path>
<path fill="#0092FF" d="M38.453,58.642c2.907-1.386,3.666-5.861,1.696-9.997c-1.971-4.138-5.926-6.393-8.85-5.007
	c-2.905,1.384-3.664,5.86-1.695,9.998C31.591,57.771,35.548,60.009,38.453,58.642"></path>
<path fill="#0092FF" d="M77.914,43.257c-3.054-1.015-6.718,1.689-8.171,6.036c-1.452,4.348-0.16,8.71,2.892,9.724
	c3.05,1.015,6.716-1.691,8.168-6.039C82.271,48.618,80.98,44.27,77.914,43.257"></path>
</svg><style>@media (prefers-color-scheme: light) { :root { filter: none; } }
@media (prefers-color-scheme: dark) { :root { filter: none; } }
</style></svg>